<svg xmlns="http://www.w3.org/2000/svg" xmlns:xlink="http://www.w3.org/1999/xlink" viewBox="0,0,256,256" width="64px" height="64px"><g fill="#ffffff" fill-rule="nonzero" stroke="none" stroke-width="1" stroke-linecap="butt" stroke-linejoin="miter" stroke-miterlimit="10" stroke-dasharray="" stroke-dashoffset="0" font-family="none" font-weight="none" font-size="none" text-anchor="none" style="mix-blend-mode: normal"><g transform="scale(4,4)"><path d="M43.48047,0.00391c-3.17969,0.12891 -6.98437,2.07422 -9.25,4.73047c-1.92969,2.23047 -3.80859,5.96484 -3.30859,9.74609c0.0625,0.46875 0.44141,0.83203 0.91016,0.86719c0.21484,0.01563 0.42578,0.02344 0.63672,0.02344c3.11719,0 6.50781,-1.71094 8.80859,-4.48437c2.39453,-2.91016 3.60547,-6.64453 3.23828,-9.99609c-0.05859,-0.52344 -0.52734,-0.9375 -1.03516,-0.88672zM42.57813,2.10547c0,2.55859 -1.02344,5.29688 -2.84375,7.50781c-1.83594,2.21484 -4.46094,3.625 -6.89062,3.75c-0.04687,-2.84766 1.47266,-5.67188 2.90234,-7.32813c1.67578,-1.96094 4.41406,-3.51172 6.83203,-3.92969zM42.44531,16.03125c-2.58203,0.02344 -4.98828,0.97266 -6.97656,1.75391c-1.23437,0.48828 -2.40234,0.94922 -3.10156,0.94922c-0.79687,0 -1.97266,-0.46875 -3.21484,-0.96094c-1.89453,-0.75391 -4.05469,-1.61719 -6.35547,-1.55859c-5.21094,0.07422 -10.12891,3.05078 -12.83594,7.76563c-5.08594,8.81641 -1.88281,22.17188 3.71094,30.25781c2.14844,3.10156 5.375,7.76172 9.76953,7.76172c0.07813,0 0.16016,-0.00391 0.23828,-0.00391c1.88672,-0.07422 3.22266,-0.64453 4.51953,-1.19922c1.41797,-0.60156 2.76172,-1.17578 4.93359,-1.17578c2.0625,0 3.33203,0.55469 4.68359,1.13672c1.36719,0.59375 2.78516,1.20703 4.89844,1.16406c4.56641,-0.08203 7.39453,-4.22266 9.67188,-7.54687c2.45703,-3.59766 3.69922,-7.10156 4.13281,-8.48437c0.16797,-0.5 -0.09766,-1.05469 -0.58594,-1.25391c-0.72266,-0.29687 -7.0625,-3.11719 -7.13281,-10.79297c-0.0625,-6.05469 4.375,-9.29687 5.80469,-10.19141c0.22266,-0.14844 0.37891,-0.37891 0.42969,-0.64062c0.05078,-0.26562 -0.00391,-0.53906 -0.15625,-0.76172c-3.625,-5.29687 -9.16406,-6.07812 -11.31641,-6.16797c-0.37891,-0.03516 -0.75,-0.05078 -1.11719,-0.05078zM42.45313,18.03516c0.32422,-0.00391 0.64453,0.01172 0.96875,0.04297c1.79297,0.07422 6.11328,0.67188 9.21094,4.5c-2.07422,1.52734 -5.89062,5.17969 -5.83203,11.28125c0.06641,7.58203 5.39844,11.12109 7.54297,12.23438c-0.54687,1.55859 -1.67578,4.32422 -3.60937,7.15234c-2.5625,3.74609 -4.78125,6.61719 -8.05859,6.67578c-1.67578,0.03125 -2.78516,-0.44531 -4.06641,-1c-1.40625,-0.60937 -3,-1.30078 -5.47656,-1.30078c-2.58203,0 -4.24609,0.71094 -5.71484,1.33594c-1.23437,0.52734 -2.29687,0.98047 -3.81641,1.03906c-3.14844,0.09375 -5.71875,-3.19531 -8.28516,-6.89844c-7.02734,-10.15625 -7.11328,-22.06641 -3.625,-28.12109c2.35938,-4.10547 6.625,-6.69531 11.13672,-6.76172c0.04297,-0.00391 0.08203,-0.00391 0.125,-0.00391c1.87891,0 3.77734,0.75391 5.45703,1.42188c1.49219,0.59375 2.77734,1.10156 3.96094,1.10156c1.07813,0 2.35547,-0.5 3.83203,-1.08594c1.80859,-0.71094 4.00391,-1.58203 6.25,-1.61328zM45.53516,23.23828c-0.38281,-0.05469 -0.78516,0.12109 -1,0.47656c-0.42578,0.70703 -0.80859,1.45313 -1.14062,2.21094c-0.22266,0.50781 0.00781,1.09375 0.51563,1.3125c0.12891,0.05859 0.26563,0.08594 0.40234,0.08594c0.38281,0 0.75,-0.22266 0.91406,-0.60156c0.29688,-0.67578 0.64063,-1.34375 1.02344,-1.97656c0.28516,-0.47656 0.13281,-1.08984 -0.33984,-1.375c-0.11719,-0.07031 -0.24609,-0.11328 -0.375,-0.13281zM43.26563,29.36328c-0.54687,-0.10156 -1.0625,0.26563 -1.15625,0.80859c-0.19531,1.08984 -0.29687,2.21094 -0.29687,3.32813c0,3.16797 0.80469,6.3125 2.32813,9.09375c0.18359,0.33594 0.52344,0.52344 0.87891,0.52344c0.16016,0 0.32813,-0.03906 0.48047,-0.12109c0.48438,-0.26562 0.66016,-0.875 0.39453,-1.35547c-1.35937,-2.49219 -2.08203,-5.30859 -2.08203,-8.14062c0,-1 0.08984,-2.00391 0.26563,-2.97656c0.09375,-0.54297 -0.26562,-1.0625 -0.8125,-1.16016zM14,38.96484c-0.55078,0 -1,0.44531 -1,1c0,0.55078 0.44531,1 1,1l2,0.00391c0.55078,0 1,-0.44531 1,-1c0,-0.55078 -0.44531,-1 -1,-1zM16.67578,43.12109c-0.12891,-0.01953 -0.26172,-0.01172 -0.39453,0.02344l-1.93359,0.51172c-0.53516,0.14453 -0.85156,0.69141 -0.70703,1.22656c0.11719,0.44531 0.51953,0.74219 0.96484,0.74219c0.08203,0 0.16797,-0.01172 0.25391,-0.03125l1.9375,-0.51562c0.53125,-0.14453 0.84766,-0.69141 0.70703,-1.22266c-0.10547,-0.40234 -0.44141,-0.67969 -0.82812,-0.73437zM18.00391,46.98047c-0.12891,0.01563 -0.25391,0.05469 -0.375,0.125l-1.73437,0.99609c-0.48047,0.27344 -0.64453,0.88672 -0.36719,1.36719c0.18359,0.32031 0.51953,0.5 0.86719,0.5c0.16797,0 0.33984,-0.04297 0.49609,-0.13281l1.73438,-0.99609c0.48047,-0.27734 0.64453,-0.88672 0.37109,-1.36719c-0.20703,-0.35547 -0.60156,-0.53906 -0.99219,-0.49219zM20.66797,50.29297c-0.25781,-0.00391 -0.51562,0.09375 -0.71094,0.28906l-1.41406,1.41016c-0.39453,0.39063 -0.39453,1.02344 -0.00781,1.41406c0.19531,0.19531 0.45313,0.29688 0.71094,0.29688c0.25391,0 0.51172,-0.09766 0.70703,-0.29297l1.41797,-1.41016c0.39063,-0.39062 0.39063,-1.02344 0,-1.41406c-0.19531,-0.19531 -0.44922,-0.29297 -0.70312,-0.29297zM24.09766,52.84766c-0.38672,-0.04687 -0.78516,0.13281 -0.99219,0.49219l-1,1.72656c-0.27734,0.48047 -0.11719,1.09375 0.36328,1.37109c0.15625,0.08984 0.32813,0.13281 0.5,0.13281c0.34375,0 0.67969,-0.17969 0.86328,-0.49609l1.00391,-1.73047c0.27734,-0.48047 0.11328,-1.09375 -0.36328,-1.37109c-0.11719,-0.06641 -0.24609,-0.10937 -0.375,-0.125z"></path></g></g></svg>